<?xml version="1.0" encoding="UTF-8"?>
<svg version="1.1" xmlns="http://www.w3.org/2000/svg" width="512" height="512">
<path d="M0 0 C0.95658005 -0.00029205 1.9131601 -0.00058411 2.89872742 -0.00088501 C6.0532648 0.00050575 9.20756454 0.01605519 12.36206055 0.03173828 C14.55209728 0.03546931 16.74213568 0.03831586 18.93217468 0.04031372 C24.69105656 0.0479431 30.44983725 0.06758571 36.2086792 0.08972168 C42.08726635 0.11019503 47.96586988 0.11931863 53.84448242 0.12939453 C65.37512579 0.15083218 76.90569412 0.18495982 88.4362793 0.22705078 C88.4362793 5.17705078 88.4362793 10.12705078 88.4362793 15.22705078 C87.27862564 15.21816833 86.12097198 15.20928589 84.92823792 15.20013428 C73.99700088 15.11890586 63.06582541 15.05901692 52.13435459 15.01980209 C46.51489709 14.99896329 40.89568403 14.97071316 35.27636719 14.92529297 C29.84931486 14.88170335 24.42249706 14.8578858 18.99528313 14.84754181 C16.92890674 14.84017399 14.8625426 14.82578644 12.79626656 14.80413055 C9.89287098 14.77492241 6.99043386 14.77110206 4.08691406 14.77294922 C3.24030212 14.75856812 2.39369019 14.74418701 1.52142334 14.72937012 C-5.18788919 14.77529579 -11.22606734 16.38002401 -16.42031002 20.81072617 C-21.19646476 25.65895659 -23.38932031 31.83797418 -23.6574707 38.58642578 C-23.15755713 45.83517254 -20.54121543 51.72973526 -15.1262207 56.60205078 C-11.05807839 59.98115739 -7.06392115 61.50941316 -1.76806641 61.35238647 C-0.81936172 61.33022945 0.12934296 61.30807243 1.10679626 61.28524399 C2.14751785 61.25105488 3.18823944 61.21686577 4.26049805 61.18164062 C6.60260892 61.12570578 8.94473213 61.07028553 11.28686523 61.01528931 C12.55300659 60.98206196 13.81914795 60.94883461 15.12365723 60.91460037 C22.22576556 60.73023087 29.32891954 60.59993252 36.43237305 60.47998047 C37.2080727 60.46684319 37.98377235 60.45370591 38.78297806 60.44017053 C59.38076175 60.10457571 79.97593504 60.26702462 100.57473755 60.4293375 C103.68857195 60.45363117 106.80241303 60.47669821 109.91625977 60.4993515 C129.15078334 60.63948366 148.38514515 60.79641604 167.61938477 60.97119141 C177.24374222 61.05852578 186.86812523 61.134969 196.49266243 61.19961298 C202.51472234 61.24070346 208.53645534 61.29522594 214.55830288 61.36017251 C218.26787232 61.39701595 221.97744343 61.42115716 225.6871357 61.441679 C227.40005582 61.45370209 229.11294868 61.47093809 230.82575798 61.49383354 C233.16507482 61.5243596 235.50377312 61.53602031 237.84326172 61.54312134 C239.14873459 61.55455988 240.45420746 61.56599842 241.79924011 61.57778358 C248.56545925 60.92529268 253.61294986 58.05038022 258.4362793 53.22705078 C262.69156154 47.15582006 264.27411608 40.15739798 263.0300293 32.83642578 C261.30121453 26.78557411 258.2230284 21.62274681 252.83062744 18.21123123 C247.37716024 15.20643028 242.96820543 14.66987348 236.80737305 14.77294922 C235.87961563 14.77236511 234.95185822 14.77178101 233.99598694 14.7711792 C230.95485933 14.77394739 227.91473391 14.80497946 224.8737793 14.83642578 C222.75529516 14.84389267 220.63680408 14.84958348 218.51831055 14.85357666 C212.96153457 14.86879765 207.40518148 14.90804916 201.84857178 14.95239258 C196.17083455 14.99342153 190.49302852 15.01160395 184.81518555 15.03173828 C173.68869839 15.07454671 162.56252411 15.14275526 151.4362793 15.22705078 C151.4362793 10.27705078 151.4362793 5.32705078 151.4362793 0.22705078 C164.0411217 0.13417843 176.64588206 0.06319821 189.25099754 0.01980209 C195.10471092 -0.00103082 200.95818938 -0.02927017 206.81176758 -0.07470703 C212.46575846 -0.11831766 218.11952404 -0.14211862 223.7736702 -0.15245819 C225.92574228 -0.15982225 228.07780268 -0.17420235 230.22977829 -0.19586945 C233.2550959 -0.22510541 236.27949444 -0.22889676 239.30493164 -0.22705078 C240.62556107 -0.24862244 240.62556107 -0.24862244 241.97286987 -0.27062988 C252.29633625 -0.20291794 259.83543675 3.7388564 267.17456055 10.81298828 C274.47212603 18.60209963 278.22372708 26.7345852 278.5300293 37.53173828 C277.96592704 49.51891129 273.95069312 58.71263696 265.4362793 67.22705078 C255.65570729 75.11078458 245.16589219 77.69525082 232.78591919 77.61473083 C231.26649823 77.62280914 231.26649823 77.62280914 229.71638191 77.63105065 C226.35351893 77.64525225 222.99105394 77.63824573 219.62817383 77.63110352 C217.20432216 77.63681116 214.78047319 77.64377694 212.35662842 77.65190125 C206.47490533 77.66794824 200.59328104 77.66994205 194.71154775 77.66468834 C189.92691842 77.66063381 185.14232056 77.66210537 180.35769272 77.6674366 C179.67464692 77.66818502 178.99160112 77.66893344 178.28785696 77.66970455 C176.89989233 77.67123615 175.51192771 77.6727745 174.1239631 77.67431951 C161.13102701 77.68802244 148.13815126 77.6826225 135.14521657 77.6711343 C123.28209563 77.66120491 111.41913074 77.67414138 99.55603386 77.69806849 C87.34808269 77.72250391 75.14020405 77.73205643 62.93222892 77.72541577 C56.08915345 77.7219333 49.24619789 77.72409092 42.40314102 77.74166679 C35.96635433 77.75799542 29.5297915 77.75313822 23.09300995 77.73436165 C20.73767782 77.73068619 18.38232349 77.7337536 16.02701187 77.74424744 C-14.8046391 77.87107288 -14.8046391 77.87107288 -26.5637207 66.22705078 C-33.50313274 58.80477707 -38.51450898 49.64817866 -38.58325195 39.28173828 C-37.73308861 26.22451259 -34.51987949 17.08213904 -24.5637207 8.22705078 C-21.35930578 5.9307119 -18.10275198 3.96141048 -14.5637207 2.22705078 C-13.88731033 1.87788605 -13.21089996 1.52872131 -12.51399231 1.16897583 C-8.32054029 -0.16985599 -4.37568448 -0.03502196 0 0 Z " fill={color} transform="translate(191.563720703125,311.77294921875)"/>
<path d="M0 0 C8.58 0 17.16 0 26 0 C26 66.33 26 132.66 26 201 C17.42 201 8.84 201 0 201 C0 160.08 0 119.16 0 77 C-23.43885454 77.03946513 -23.43885454 77.03946513 -46.87768555 77.09008789 C-51.45275879 77.09460449 -51.45275879 77.09460449 -53.60725403 77.09544373 C-55.08418582 77.09696046 -56.56111653 77.10043735 -58.03804016 77.10557556 C-67.40974662 77.13649625 -76.65696534 76.8509729 -86 76 C-86 71.05 -86 66.1 -86 61 C-57.62 61 -29.24 61 0 61 C0 53.08 0 45.16 0 37 C-28.38 37 -56.76 37 -86 37 C-86 32.38 -86 27.76 -86 23 C-75.89433857 22.07956629 -65.89588469 21.86744432 -55.76171875 21.90234375 C-54.14362126 21.90421394 -52.52552319 21.905635 -50.90742493 21.90663147 C-46.69404475 21.91040938 -42.48070027 21.920198 -38.26733398 21.93133545 C-33.94971194 21.94165247 -29.632084 21.94615091 -25.31445312 21.95117188 C-16.87628406 21.9618256 -8.43815061 21.97938278 0 22 C0 14.74 0 7.48 0 0 Z M9 31 C8.66666667 34 8.66666667 34 9 37 C10.88500271 39.31563087 10.88500271 39.31563087 14 39.25 C17.11499729 39.31563087 17.11499729 39.31563087 19 37 C19.33333333 34 19.33333333 34 19 31 C17.11499729 28.68436913 17.11499729 28.68436913 14 28.75 C10.88500271 28.68436913 10.88500271 28.68436913 9 31 Z M10.0625 68.125 C8.63933009 70.63647631 8.57325484 72.15503228 9 75 C10.08333333 76.91666667 10.08333333 76.91666667 12 78 C14.84496772 78.42674516 16.36352369 78.36066991 18.875 76.9375 C20.64782183 73.88430685 19.69235306 71.33588292 19 68 C14.38990512 66.82991255 14.38990512 66.82991255 10.0625 68.125 Z " fill={color} transform="translate(206,97)"/>
<path d="M0 0 C33.99 0 67.98 0 103 0 C103 23.43 103 46.86 103 71 C85.7676929 72.14882047 85.7676929 72.14882047 78.12719727 72.11352539 C76.82181 72.11374443 76.82181 72.11374443 75.49005127 72.1139679 C72.68214202 72.1132846 69.87430355 72.10556857 67.06640625 72.09765625 C65.0924432 72.09578641 63.11847968 72.09436519 61.14451599 72.09336853 C56.00066805 72.08958784 50.85684928 72.07979666 45.7130127 72.06866455 C39.51360425 72.05653428 33.31418595 72.05202697 27.11476898 72.04621124 C17.74315917 72.03658163 8.37161308 72.01739421 -1 72 C-0.67 48.24 -0.34 24.48 0 0 Z M19 21 C19 23.97 19 26.94 19 30 C27.91 30 36.82 30 46 30 C46 27.36 46 24.72 46 22 C37.09 21.67 28.18 21.34 19 21 Z M56 21 C56 23.97 56 26.94 56 30 C64.91 30 73.82 30 83 30 C83 27.03 83 24.06 83 21 C74.09 21 65.18 21 56 21 Z M19 45 C19 47.97 19 50.94 19 54 C27.91 54 36.82 54 46 54 C46 51.03 46 48.06 46 45 C37.09 45 28.18 45 19 45 Z M56 45 C56 47.97 56 50.94 56 54 C64.91 54 73.82 54 83 54 C83 51.03 83 48.06 83 45 C74.09 45 65.18 45 56 45 Z " fill={color} transform="translate(350,227)"/>
<path d="M0 0 C1.40897804 0.00333092 1.40897804 0.00333092 2.84642029 0.00672913 C3.90744461 0.00680466 4.96846893 0.00688019 6.06164551 0.00695801 C7.79286903 0.01469994 7.79286903 0.01469994 9.55906677 0.02259827 C10.73404221 0.02401321 11.90901764 0.02542816 13.11959839 0.02688599 C16.88981116 0.0325046 20.65996556 0.04506026 24.43016052 0.05775452 C26.97898779 0.06276712 29.52781599 0.06733044 32.0766449 0.07142639 C38.34033685 0.08248007 44.60399452 0.0992363 50.86766052 0.12025452 C50.89078576 9.36023003 50.90857653 18.60019565 50.91947269 27.84019375 C50.92470113 32.13025367 50.93179805 36.42029385 50.94309998 40.71034241 C50.95393027 44.84704852 50.95993766 48.9837356 50.96253777 53.12045479 C50.96439176 54.70217756 50.96801188 56.28389923 50.97339058 57.86561394 C50.98060292 60.0734829 50.98165139 62.28127224 50.98118591 64.489151 C50.98340652 65.74823776 50.98562714 67.00732452 50.98791504 68.30456543 C50.86766052 71.12025452 50.86766052 71.12025452 49.86766052 72.12025452 C47.0372538 72.21546358 44.2313106 72.24579083 41.40061951 72.23377991 C40.51289856 72.23392593 39.62517761 72.23407196 38.71055603 72.23422241 C35.76159768 72.23352295 32.81270166 72.225729 29.86375427 72.21791077 C27.82494135 72.21604671 25.78612798 72.21462275 23.74731445 72.21362305 C18.36981479 72.20979692 12.99234194 72.19996584 7.61485291 72.18891907 C2.13206851 72.17870697 -3.3507202 72.17412586 -8.83351135 72.16908264 C-19.59979921 72.15834365 -30.36606712 72.14126611 -41.13233948 72.12025452 C-38.76640052 66.11143705 -35.79426715 60.47335312 -32.81983948 54.74525452 C-32.5113205 54.15022125 -32.20280151 53.55518799 -31.88493347 52.94212341 C-26.05254438 41.70945049 -19.90551163 30.67272751 -13.60450745 19.69593811 C-10.95402353 15.05869014 -8.35535404 10.39220251 -5.7580719 5.72499084 C-2.63663566 0.14869459 -2.63663566 0.14869459 0 0 Z M-8.10890198 34.13978577 C-8.59520081 35.31106018 -9.08149963 36.48233459 -9.58253479 37.68910217 C-11.58754495 42.12804558 -14.1509404 46.02455088 -16.92286682 50.01747131 C-17.3219928 50.71138977 -17.72111877 51.40530823 -18.13233948 52.12025452 C-17.80233948 52.78025452 -17.47233948 53.44025452 -17.13233948 54.12025452 C5.63766052 53.62525452 5.63766052 53.62525452 28.86766052 53.12025452 C31.45587879 41.78197823 31.45587879 41.78197823 34.04319763 30.4434967 C34.36876735 29.01803355 34.69436751 27.59257735 35.02000427 26.16712952 C35.27143188 25.06425598 35.27143188 25.06425598 35.52793884 23.93910217 C36.27786264 20.65797614 37.04389848 17.38358384 37.86766052 14.12025452 C14.50437968 10.51341445 2.01868032 11.51731419 -8.10890198 34.13978577 Z " fill={color} transform="translate(287.13233947753906,226.87974548339844)"/>
<path d="M0 0 C44.55 0 89.1 0 135 0 C135 6.93 135 13.86 135 21 C90.45 21 45.9 21 0 21 C0 14.07 0 7.14 0 0 Z " fill={color} transform="translate(244,340)"/>
<path d="M0 0 C3.96 0 7.92 0 12 0 C12 9.57 12 19.14 12 29 C16.47727453 26.04559072 16.47727453 26.04559072 20.94458008 23.07617188 C25.66666667 20 25.66666667 20 29 20 C29.99414662 24.63198683 30.25373367 28.40132472 29 33 C24.97443169 37.73949582 19.36831699 40.9901234 14 44 C13.34 44 12.68 44 12 44 C12.33 51.26 12.66 58.52 13 66 C17.14871873 63.04579796 17.14871873 63.04579796 21.28637695 60.07617188 C25.66666667 57 25.66666667 57 29 57 C30.08386108 61.66662411 30.33358064 65.36678784 29 70 C24.60904188 75.01492201 18.64976524 78.55623518 13 82 C16.08632566 85.36349569 19.40085997 87.51551696 23.25 89.9375 C28.76114442 93.93709267 28.76114442 93.93709267 29.78125 98.4765625 C29.75289525 101.73027053 29.53536428 104.79277137 29 108 C24.78345644 106.51364884 21.37521395 104.38750841 17.6875 101.875 C16.08455078 100.78832031 16.08455078 100.78832031 14.44921875 99.6796875 C13.64097656 99.12539063 12.83273438 98.57109375 12 98 C12.02618408 98.55985596 12.05236816 99.11971191 12.0793457 99.6965332 C12.18332331 102.23490294 12.2483205 104.77282553 12.3125 107.3125 C12.3753418 108.63411133 12.3753418 108.63411133 12.43945312 109.98242188 C12.4856068 112.41010524 12.45477272 114.61431649 12 117 C8.50733684 120.32228934 4.7849839 120.63286174 0 122 C0 81.74 0 41.48 0 0 Z " fill={color} transform="translate(171,181)"/>
<path d="M0 0 C0.75160904 -0.00043808 1.50321808 -0.00087616 2.27760315 -0.00132751 C4.75597324 0.00075851 7.2336625 0.02408014 9.71191406 0.04760742 C11.43255239 0.05320405 13.15319551 0.05747384 14.87384033 0.06047058 C19.39818567 0.0719141 23.92224118 0.10137697 28.44647217 0.13458252 C33.06486083 0.16529407 37.68329642 0.17897823 42.30175781 0.1940918 C51.36047876 0.22624719 60.41898479 0.27743755 69.47753906 0.34057617 C69.50648453 3.79889203 69.52431907 7.25717689 69.54003906 10.71557617 C69.54841797 11.70041992 69.55679688 12.68526367 69.56542969 13.69995117 C69.56865234 14.6409668 69.571875 15.58198242 69.57519531 16.55151367 C69.58043213 17.4208252 69.58566895 18.29013672 69.59106445 19.18579102 C69.47753906 21.34057617 69.47753906 21.34057617 68.47753906 23.34057617 C39.76753906 23.34057617 11.05753906 23.34057617 -18.52246094 23.34057617 C-18.52246094 11.34057617 -18.52246094 11.34057617 -15.27246094 6.77807617 C-13.44433594 4.96166992 -13.44433594 4.96166992 -11.52246094 3.34057617 C-10.97797302 2.8191655 -10.43348511 2.29775482 -9.87249756 1.76054382 C-6.6303302 -0.19847789 -3.67425263 -0.05616271 0 0 Z " fill={color} transform="translate(175.5224609375,65.659423828125)"/>
<path d="M0 0 C5.61 0 11.22 0 17 0 C17 33.99 17 67.98 17 103 C11.72 103 6.44 103 1 103 C-0.96428367 101.03571633 -0.12023917 98.01702837 -0.12442017 95.40252686 C-0.12082489 94.4523468 -0.11722961 93.50216675 -0.11352539 92.52319336 C-0.11374443 91.03067802 -0.11374443 91.03067802 -0.1139679 89.50801086 C-0.11326831 86.20193338 -0.10547379 82.89591146 -0.09765625 79.58984375 C-0.09579223 77.30440807 -0.09436825 75.01897199 -0.09336853 72.73353577 C-0.08954207 66.70501613 -0.0797107 60.67652041 -0.06866455 54.64801025 C-0.05845317 48.50167159 -0.0538715 42.35532907 -0.04882812 36.20898438 C-0.03808854 24.13931238 -0.0210106 12.06965818 0 0 Z " fill={color} transform="translate(96,107)"/>
<path d="M0 0 C12.87 0 25.74 0 39 0 C39 10.23 39 20.46 39 31 C26.13 31 13.26 31 0 31 C0 20.77 0 10.54 0 0 Z " fill={color} transform="translate(85,66)"/>
<path d="M0 0 C5.61 0 11.22 0 17 0 C17.495 19.8 17.495 19.8 18 40 C19.98 40.33 21.96 40.66 24 41 C24 45.95 24 50.9 24 56 C13.77 56 3.54 56 -7 56 C-7 41 -7 41 -6 40 C-4.35 40 -2.7 40 -1 40 C-0.67 26.8 -0.34 13.6 0 0 Z " fill={color} transform="translate(96,248)"/>
<path d="M0 0 C10.23 0 20.46 0 31 0 C31 3.96 31 7.92 31 12 C28.04335481 13.4783226 25.25770263 13.06032783 22 13 C21.83564453 14.18142578 21.83564453 14.18142578 21.66796875 15.38671875 C19.29145551 31.71317146 19.29145551 31.71317146 17 39 C16.01 39.495 16.01 39.495 15 40 C12.48144994 31.05058909 10.30549022 22.22431907 9 13 C7.700625 13.020625 6.40125 13.04125 5.0625 13.0625 C3.70834367 13.08399454 2.35243917 13.07148199 1 13 C0.67 12.67 0.34 12.34 0 12 C0 8.04 0 4.08 0 0 Z " fill={color} transform="translate(89,331)"/>
<path d="M0 0 C12.87 0 25.74 0 39 0 C39 4.95 39 9.9 39 15 C26.13 15 13.26 15 0 15 C0 10.05 0 5.1 0 0 Z " fill={color} transform="translate(292,312)"/>
<path d="M0 0 C6.49619355 5.22519916 6.49619355 5.22519916 7.2578125 9.421875 C7.46270715 13.49244875 7.03962137 15.97059409 5.25 19.6875 C1.63336145 23.68483735 -1.33432044 25.12400741 -6.6875 25.6875 C-11.63102857 25.14820597 -13.95220644 23.51787115 -17.375 20 C-19.38690177 16.91029371 -19.97494367 14.98888001 -20.125 11.3125 C-19.10234736 6.75704732 -17.37866064 3.65912237 -14.125 0.3125 C-9.19168352 -2.41380647 -4.98410644 -2.69141748 0 0 Z " fill={color} transform="translate(437.125,338.6875)"/>
<path d="M0 0 C3.66641011 1.95588608 6.31043377 4.16791716 7.796875 8.1171875 C8.66147508 13.11457595 7.83784235 16.96756212 5.296875 21.3359375 C3.20214715 24.02375095 1.22295538 24.98887674 -2 26 C-7.02373423 26.52881413 -10.00261746 26.13308361 -14 23 C-17.03063475 19.54844376 -18.86936155 17.35863989 -19.3125 12.75 C-18.87731992 7.52783899 -16.83177331 4.60974018 -12.9375 1.1875 C-8.65546806 -1.43697119 -4.70614536 -1.36796547 0 0 Z " fill={color} transform="translate(198,338)"/>
<path d="M0 0 C5.61 0 11.22 0 17 0 C17 7.26 17 14.52 17 22 C11.39 22 5.78 22 0 22 C0 14.74 0 7.48 0 0 Z " fill={color} transform="translate(96,218)"/>
<path d="M0 0 C10.23 0 20.46 0 31 0 C31 3.63 31 7.26 31 11 C20.77 11 10.54 11 0 11 C0 7.37 0 3.74 0 0 Z " fill={color} transform="translate(89,312)"/>
<path d="M0 0 C5.61 0 11.22 0 17 0 C17 6.93 17 13.86 17 21 C11.39 21 5.78 21 0 21 C0.33 19.68 0.66 18.36 1 17 C1.09248018 15.02255614 1.12999268 13.04209892 1.125 11.0625 C1.12757813 10.04285156 1.13015625 9.02320313 1.1328125 7.97265625 C1.05933003 4.63731652 1.05933003 4.63731652 0 0 Z " fill={color} transform="translate(216,340)"/>
<path d="M0 0 C5.28 0 10.56 0 16 0 C15.67 1.65 15.34 3.3 15 5 C14.9114181 6.64397589 14.86979825 8.29114754 14.875 9.9375 C14.87242187 10.75089844 14.86984375 11.56429688 14.8671875 12.40234375 C15.01478758 15.2892276 15.52477931 18.14867585 16 21 C10.72 21 5.44 21 0 21 C0 14.07 0 7.14 0 0 Z " fill={color} transform="translate(391,340)"/>
<path d="M0 0 C5.61 0 11.22 0 17 0 C17 5.28 17 10.56 17 16 C11.39 16 5.78 16 0 16 C0 10.72 0 5.44 0 0 Z " fill={color} transform="translate(96,42)"/>
<path d="M0 0 C7.92 0 15.84 0 24 0 C20.90658734 6.18682532 16.52565233 10.8974114 11 15 C6.88627784 15.92710733 4.24717151 15.60673879 0 15 C0 10.05 0 5.1 0 0 Z " fill={color} transform="translate(171,97)"/>
<path d="M0 0 C31.68 0 63.36 0 96 0 C96 0.33 96 0.66 96 1 C64.32 1 32.64 1 0 1 C0 0.67 0 0.34 0 0 Z " fill={color} transform="translate(281,362)"/>
<path d="M0 0 C3.63 0 7.26 0 11 0 C11 0.33 11 0.66 11 1 C7.37 1 3.74 1 0 1 C0 0.67 0 0.34 0 0 Z " fill={color} transform="translate(297,371)"/>
<path d="M0 0 C0.33 0 0.66 0 1 0 C1 3.63 1 7.26 1 11 C0.67 11 0.34 11 0 11 C0 7.37 0 3.74 0 0 Z " fill={color} transform="translate(348,242)"/>
<path d="M0 0 C2.31 0 4.62 0 7 0 C7 0.33 7 0.66 7 1 C4.69 1 2.38 1 0 1 C0 0.67 0 0.34 0 0 Z " fill={color} transform="translate(268,362)"/>
<path d="M0 0 C0.33 0 0.66 0 1 0 C1 2.31 1 4.62 1 7 C0.67 7 0.34 7 0 7 C0 4.69 0 2.38 0 0 Z " fill={color} transform="translate(348,286)"/>
<path d="M0 0 C0.33 0 0.66 0 1 0 C1 1.65 1 3.3 1 5 C0.67 5 0.34 5 0 5 C0 3.35 0 1.7 0 0 Z " fill={color} transform="translate(348,272)"/>
<path d="M0 0 C1.65 0 3.3 0 5 0 C5 0.33 5 0.66 5 1 C3.35 1 1.7 1 0 1 C0 0.67 0 0.34 0 0 Z " fill={color} transform="translate(417,254)"/>
<path d="M0 0 C4 1 4 1 4 1 Z " fill={color} transform="translate(344,310)"/>
<path d="M0 0 C3 1 3 1 3 1 Z " fill={color} transform="translate(248,362)"/>
<path d="" fill={color} transform="translate(0,0)"/>
<path d="M0 0 C2 1 2 1 2 1 Z " fill={color} transform="translate(182,371)"/>
<path d="M0 0 C2 1 2 1 2 1 Z " fill={color} transform="translate(262,362)"/>
<path d="M0 0 C2 1 2 1 2 1 Z " fill={color} transform="translate(290,311)"/>
<path d="" fill={color} transform="translate(0,0)"/>
<path d="" fill={color} transform="translate(0,0)"/>
<path d="" fill={color} transform="translate(0,0)"/>
<path d="" fill={color} transform="translate(0,0)"/>
<path d="" fill={color} transform="translate(0,0)"/>
<path d="" fill={color} transform="translate(0,0)"/>
<path d="" fill={color} transform="translate(0,0)"/>
<path d="" fill={color} transform="translate(0,0)"/>
<path d="" fill={color} transform="translate(0,0)"/>
<path d="" fill={color} transform="translate(0,0)"/>
<path d="" fill={color} transform="translate(0,0)"/>
<path d="" fill={color} transform="translate(0,0)"/>
<path d="" fill={color} transform="translate(0,0)"/>
<path d="" fill={color} transform="translate(0,0)"/>
<path d="" fill={color} transform="translate(0,0)"/>
<path d="" fill={color} transform="translate(0,0)"/>
</svg>
